<svg xmlns="http://www.w3.org/2000/svg" xmlns:xlink="http://www.w3.org/1999/xlink" width="150" height="150" viewBox="0 0 150 150">
  <defs>
    <clipPath id="clip-path">
      <circle id="Ellipse_2" data-name="Ellipse 2" cx="75" cy="75" r="75" transform="translate(869 2345)" fill="#b0b0b0"/>
    </clipPath>
    <clipPath id="clip-path-2">
      <circle id="Ellipse_112" data-name="Ellipse 112" cx="63.5" cy="63.5" r="63.5" transform="translate(778.667 1683.875)" fill="#fff" stroke="#707070" stroke-width="1"/>
    </clipPath>
  </defs>
  <g id="Mask_Group_5" data-name="Mask Group 5" transform="translate(-869 -2345)" clip-path="url(#clip-path)">
    <g id="Group_1243" data-name="Group 1243" transform="translate(102.333 673.125)">
      <g id="Group_123" data-name="Group 123">
        <circle id="Ellipse_18" data-name="Ellipse 18" cx="75" cy="75" r="75" transform="translate(766.667 1671.875)" fill="#2b726e"/>
        <g id="Mask_Group_12" data-name="Mask Group 12" clip-path="url(#clip-path-2)">
          <path id="child-baby-boy-girl-svgrepo-com" d="M1.02,68.039a15.913,15.913,0,0,1,0,31.827,15.913,15.913,0,0,1,0-31.827Zm16.627,35.8H-15.607a15.893,15.893,0,0,0-15.1,15.811v21.932a5.966,5.966,0,0,0,5.916,5.814,5.968,5.968,0,0,0,5.916-5.814V123.226a1.961,1.961,0,0,1,2.04-1.938,1.937,1.937,0,0,1,1.938,1.938V188.1a6.879,6.879,0,0,0,6.937,6.937A6.879,6.879,0,0,0-1.02,188.1V155.358a1.938,1.938,0,0,1,3.876,0V188.1a6.879,6.879,0,0,0,6.937,6.937,6.879,6.879,0,0,0,6.937-6.937V123.226a1.876,1.876,0,0,1,1.938-1.938,2.028,2.028,0,0,1,2.04,1.938v18.361a5.917,5.917,0,0,0,11.833,0V119.655A15.505,15.505,0,0,0,17.647,103.844Z" transform="translate(841.246 1615.836)" fill="#fff"/>
        </g>
      </g>
    </g>
  </g>
</svg>
