<svg xmlns="http://www.w3.org/2000/svg" width="458.145" height="440.54" viewBox="0 0 458.145 440.54">
  <g id="Group_737" data-name="Group 737" transform="translate(-1067.005 -1169.384)">
    <path id="Path_1211" data-name="Path 1211" d="M193.57,0c106.906,0,193.57,6.236,193.57,13.927S300.476,27.855,193.57,27.855,0,21.619,0,13.927,86.664,0,193.57,0Z" transform="translate(1074.174 1524.425)" fill="#d8d5da"/>
    <path id="Path_1201" data-name="Path 1201" d="M152.5,54.005C137.384-.822,69.277-18.483,30.244,22.492q-.841.882-1.679,1.794C-27.394,85.116-2.5,237.091,115.324,271.725,237.6,307.669,354.077,241.623,360.9,179.6s-47.054-81.508-130.667-64.165C183,125.235,161.907,88.137,152.5,54.005Z" transform="matrix(0.809, -0.588, 0.588, 0.809, 1067.005, 1381.859)" fill="#d8d5da"/>
    <path id="Path_1203" data-name="Path 1203" d="M429.526,406.614a25.72,25.72,0,0,0,17.027-11.289c3.816-5.775,7.066-13.38,1.571-17.542-9.648-7.306-29.337,15.546-27.882,24.888C420.9,406.9,425.114,407.37,429.526,406.614Z" transform="translate(1024.163 1104.927)" fill="#d8d5da"/>
    <g id="Group_715" data-name="Group 715" transform="translate(1224.121 1468.627)">
      <g id="Group_713" data-name="Group 713">
        <path id="Path_1205" data-name="Path 1205" d="M196.164,439.673a3.331,3.331,0,0,1-3.036-4.691l24.967-55.722a3.329,3.329,0,0,1,6.076,2.722L199.2,437.7A3.329,3.329,0,0,1,196.164,439.673Z" transform="translate(-192.837 -377.292)" fill="#4d5f2f"/>
      </g>
      <g id="Group_714" data-name="Group 714" transform="translate(93.72)">
        <path id="Path_1206" data-name="Path 1206" d="M313.222,439.673a3.331,3.331,0,0,0,3.037-4.691L291.293,379.26a3.329,3.329,0,0,0-6.076,2.722L310.183,437.7A3.33,3.33,0,0,0,313.222,439.673Z" transform="translate(-284.925 -377.292)" fill="#4d5f2f"/>
      </g>
    </g>
    <path id="Path_1213" data-name="Path 1213" d="M118.72,0A118.72,118.72,0,1,1,0,118.72,118.72,118.72,0,0,1,118.72,0Z" transform="translate(1132.48 1370.619) rotate(-45)" fill="#48394e"/>
    <circle id="Ellipse_29" data-name="Ellipse 29" cx="118.72" cy="118.72" r="118.72" transform="translate(1118.898 1370.619) rotate(-45)" fill="#5b4c62"/>
    <circle id="Ellipse_30" data-name="Ellipse 30" cx="93.834" cy="93.834" r="93.834" transform="translate(1154.092 1370.619) rotate(-45)" fill="#fff9ff"/>
    <ellipse id="Ellipse_31" data-name="Ellipse 31" cx="68.948" cy="68.948" rx="68.948" ry="68.948" transform="translate(1203.19 1320.439) rotate(-14.027)" fill="#5b4c62"/>
    <ellipse id="Ellipse_32" data-name="Ellipse 32" cx="44.062" cy="44.062" rx="44.062" ry="44.062" transform="matrix(0.96, -0.28, 0.28, 0.96, 1232.168, 1340.635)" fill="#fff9ff"/>
    <path id="Path_1207" data-name="Path 1207" d="M259.93,299.787a19.176,19.176,0,1,1,13.286-23.64A19.2,19.2,0,0,1,259.93,299.787Z" transform="translate(1032.041 1089.295)" fill="#c6962b"/>
    <g id="Group_720" data-name="Group 720" transform="translate(1135.679 1205.757)">
      <g id="Group_717" data-name="Group 717" transform="translate(34.505 34.186)">
        <path id="Path_1208" data-name="Path 1208" d="M259.519,281.134,145.347,153.639a3.157,3.157,0,1,0-4.7,4.212L255.057,285.615A6.51,6.51,0,0,0,259.519,281.134Z" transform="translate(-139.839 -152.589)" fill="#4d5f2f"/>
      </g>
      <g id="Group_718" data-name="Group 718" transform="translate(0 38.1)">
        <path id="Path_1209" data-name="Path 1209" d="M195.462,218.328l-36-2.117L140.35,194.867l9.676-.813L132.859,186.5l-26.925-30.067,35.87,1.973Z" transform="translate(-105.934 -156.435)" fill="#c6962b"/>
      </g>
      <g id="Group_719" data-name="Group 719" transform="translate(40.57)">
        <path id="Path_1210" data-name="Path 1210" d="M199.459,214.779l1.845-36.006L182.19,157.429l-1.872,9.528L174.7,149.064,147.774,119,145.8,154.856Z" transform="translate(-145.798 -118.997)" fill="#c6962b"/>
      </g>
    </g>
  </g>
</svg>
