<svg xmlns="http://www.w3.org/2000/svg" width="144" height="144" viewBox="0 0 144 144">
  <g id="Group_1242" data-name="Group 1242" transform="translate(-561 -1342)">
    <circle id="Ellipse_17" data-name="Ellipse 17" cx="72" cy="72" r="72" transform="translate(561 1342)" fill="#5b4c62"/>
    <g id="Group_739" data-name="Group 739" transform="translate(81.532 101.597)">
      <path id="Path_1225" data-name="Path 1225" d="M102.938,167.97h0l-14.33-18.677a.922.922,0,0,0-.732-.361H50.5a.923.923,0,0,0-.732.361l-14.33,18.677h0a.914.914,0,0,0,.078,1.213L68.538,202.2a.922.922,0,0,0,1.3,0l33.017-33.017a.914.914,0,0,0,.078-1.213ZM86.753,150.776l-3.1,15.632L71.112,150.776Zm-4.508,16.832H56.137l13.053-16.28ZM67.269,150.776,54.733,166.408l-3.1-15.632ZM50,152.031l3.094,15.577H38.045ZM38.4,169.453H53.62l12.634,27.853Zm30.789,29.861L55.645,169.453H82.736Zm2.937-2.008,12.634-27.853H99.98Zm13.163-29.7,3.094-15.577,11.952,15.577Z" transform="translate(482.34 1147.422)" fill="#fff9ff"/>
      <g id="Group_738" data-name="Group 738" transform="translate(512.939 1275.738)">
        <path id="Path_1226" data-name="Path 1226" d="M135.519,25.8l4.875.708,2.18,4.418a.922.922,0,0,0,1.654,0l2.181-4.418,4.875-.708a.922.922,0,0,0,.511-1.573l-3.528-3.439.833-4.855a.922.922,0,0,0-1.338-.972L143.4,17.249l-4.361-2.292a.922.922,0,0,0-1.338.972l.833,4.855-3.528,3.439a.923.923,0,0,0,.511,1.573Zm4.652-4.029a.923.923,0,0,0,.265-.817l-.6-3.491,3.135,1.648a.922.922,0,0,0,.859,0l3.135-1.648-.6,3.491a.922.922,0,0,0,.265.817l2.537,2.472-3.505.509a.922.922,0,0,0-.695.5L143.4,28.431l-1.568-3.176a.922.922,0,0,0-.694-.5l-3.506-.509Z" transform="translate(-114.783 -14.851)" fill="#fff9ff"/>
        <path id="Path_1227" data-name="Path 1227" d="M12.845,81.824a.922.922,0,0,0,.827.514h0a.922.922,0,0,0,.827-.514l2.18-4.417,4.875-.709a.923.923,0,0,0,.511-1.573l-3.527-3.439.833-4.856a.922.922,0,0,0-1.339-.973L13.673,68.15,9.312,65.857a.923.923,0,0,0-1.339.973l.833,4.856L5.279,75.124A.923.923,0,0,0,5.79,76.7l4.875.709Zm-2.4-9.156a.923.923,0,0,0,.265-.817l-.6-3.491,3.135,1.648a.922.922,0,0,0,.859,0l3.135-1.648-.6,3.491a.922.922,0,0,0,.265.817l2.537,2.472-3.505.51a.923.923,0,0,0-.694.5l-1.568,3.176L12.1,76.155a.923.923,0,0,0-.694-.5L7.9,75.141Z" transform="translate(-5 -57.925)" fill="#fff9ff"/>
        <path id="Path_1228" data-name="Path 1228" d="M265.247,25.8l4.875.708,2.18,4.418a.923.923,0,0,0,1.655,0l2.18-4.418,4.875-.708a.923.923,0,0,0,.511-1.573L278,20.784l.833-4.855a.922.922,0,0,0-1.338-.972l-4.361,2.292-4.361-2.292a.922.922,0,0,0-1.339.972l.833,4.855-3.527,3.439a.922.922,0,0,0,.511,1.573Zm4.652-4.029a.923.923,0,0,0,.265-.817l-.6-3.491,3.135,1.648a.922.922,0,0,0,.859,0l3.135-1.648-.6,3.491a.922.922,0,0,0,.265.817L278.9,24.24l-3.505.509a.923.923,0,0,0-.694.5l-1.568,3.176-1.568-3.176a.923.923,0,0,0-.695-.5l-3.506-.509Z" transform="translate(-224.566 -14.851)" fill="#fff9ff"/>
        <path id="Path_1229" data-name="Path 1229" d="M407.727,71.686l.833-4.856a.922.922,0,0,0-1.339-.973L402.86,68.15,398.5,65.857a.922.922,0,0,0-1.339.973l.833,4.856-3.527,3.439a.923.923,0,0,0,.511,1.573l4.875.709,2.18,4.418a.923.923,0,0,0,1.655,0l2.18-4.418,4.875-.709a.922.922,0,0,0,.511-1.573Zm-2.6,3.965a.923.923,0,0,0-.694.5l-1.568,3.176-1.568-3.176a.923.923,0,0,0-.694-.5l-3.505-.51,2.537-2.472a.923.923,0,0,0,.265-.817l-.6-3.491,3.136,1.648a.922.922,0,0,0,.859,0l3.135-1.648-.6,3.491a.922.922,0,0,0,.265.817l2.537,2.472Z" transform="translate(-334.351 -57.925)" fill="#fff9ff"/>
      </g>
    </g>
  </g>
</svg>
