<svg xmlns="http://www.w3.org/2000/svg" width="144" height="144" viewBox="0 0 144 144">
  <g id="Group_1243" data-name="Group 1243" transform="translate(-736 -1605)">
    <circle id="Ellipse_18" data-name="Ellipse 18" cx="72" cy="72" r="72" transform="translate(736 1605)" fill="#c6962b"/>
    <g id="plan-idea" transform="translate(772.336 1641.052)">
      <path id="Path_1234" data-name="Path 1234" d="M81.335,127.086A10.159,10.159,0,0,0,71.2,137.24c0,3.733,2.943,6.765,3.278,7.1a7.665,7.665,0,0,1,1.516,2.526l.81,3.32a1.812,1.812,0,0,0,1.76,1.383h5.552a1.812,1.812,0,0,0,1.76-1.383l.811-3.322a7.664,7.664,0,0,1,1.515-2.526c.335-.333,3.277-3.365,3.277-7.1A10.158,10.158,0,0,0,81.335,127.086Z" transform="translate(-48.94 -96.381)" fill="none" stroke="#fff9ff" stroke-width="2"/>
      <path id="Path_1235" data-name="Path 1235" d="M56.314,0H8.475A1.812,1.812,0,0,0,6.663,1.812V69.584A1.812,1.812,0,0,0,8.475,71.4H56.314C57.315,71.4,57.315,0,56.314,0ZM10.287,3.624Z" fill="none" stroke="#fff9ff" stroke-width="2"/>
      <path id="Path_1236" data-name="Path 1236" d="M41.475,46.228H73.368a1.812,1.812,0,0,0,1.812-1.812v-9.6A1.812,1.812,0,0,0,73.368,33H41.475a1.812,1.812,0,0,0-1.812,1.812v9.6A1.812,1.812,0,0,0,41.475,46.228Z" transform="translate(-25.027 -25.027)" fill="none" stroke="#fff9ff" stroke-width="2"/>
      <path id="Path_1237" data-name="Path 1237" d="M98.521,237.466h2.438a1.108,1.108,0,0,0,0-2.216H98.521a1.108,1.108,0,0,0,0,2.216Z" transform="translate(-67.346 -177.707)" fill="none" stroke="#fff9ff" stroke-width="2"/>
      <path id="Path_1238" data-name="Path 1238" d="M105.949,254.75h-.036a.513.513,0,1,0,0,1.026h.036a.513.513,0,1,0,0-1.026Z" transform="translate(-73.536 -191.9)" fill="none" stroke="#fff9ff" stroke-width="2"/>
      <path id="Path_1239" data-name="Path 1239" d="M107.339,106.874a1.812,1.812,0,1,0,0-3.624h-.127a1.812,1.812,0,1,0,0,3.624Z" transform="translate(-74.881 -78.304)" fill="none" stroke="#fff9ff" stroke-width="2"/>
      <path id="Path_1240" data-name="Path 1240" d="M64.151,118.062a1.812,1.812,0,0,0-1.812-1.812h-.127a1.812,1.812,0,0,0,0,3.624h.127A1.812,1.812,0,0,0,64.151,118.062Z" transform="translate(-40.754 -88.163)" fill="none" stroke="#fff9ff" stroke-width="2"/>
      <path id="Path_1241" data-name="Path 1241" d="M152.339,116.25h-.127a1.812,1.812,0,0,0,0,3.624h.127a1.812,1.812,0,1,0,0-3.624Z" transform="translate(-109.009 -88.163)" fill="none" stroke="#fff9ff" stroke-width="2"/>
      <path id="Path_1242" data-name="Path 1242" d="M169.339,152.75h-.127a1.812,1.812,0,0,0,0,3.624h.127a1.812,1.812,0,1,0,0-3.624Z" transform="translate(-121.901 -115.844)" fill="none" stroke="#fff9ff" stroke-width="2"/>
      <path id="Path_1243" data-name="Path 1243" d="M48.339,152.75h-.127a1.812,1.812,0,1,0,0,3.624h.127a1.812,1.812,0,0,0,0-3.624Z" transform="translate(-30.136 -115.844)" fill="none" stroke="#fff9ff" stroke-width="2"/>
      <path id="Path_1244" data-name="Path 1244" d="M237.855,85.8l4.37,8.74a1.812,1.812,0,0,0,3.241,0l4.37-8.74a1.813,1.813,0,0,0,.191-.811V42.062a1.812,1.812,0,0,0-1.812-1.812h-8.74a1.812,1.812,0,0,0-1.812,1.812S237.729,85.553,237.855,85.8Zm3.433-2.623V49.7H246.4V83.182Z" transform="translate(-175.189 -30.525)" fill="none" stroke="#fff9ff" stroke-width="2"/>
    </g>
  </g>
</svg>
