<svg xmlns="http://www.w3.org/2000/svg" width="144" height="144" viewBox="0 0 144 144">
  <g id="Group_1244" data-name="Group 1244" transform="translate(-543 -1902)">
    <circle id="Ellipse_33" data-name="Ellipse 33" cx="72" cy="72" r="72" transform="translate(543 1902)" fill="#4d5f2f"/>
    <g id="Group_740" data-name="Group 740" transform="translate(71.414 93.414)">
      <path id="Path_1230" data-name="Path 1230" d="M73.508,73.054a.868.868,0,0,0,.041-.092c.012-.03.02-.062.029-.093a.881.881,0,0,0,.023-.1.94.94,0,0,0,.011-.107c0-.022.006-.042.006-.065V30.316a1.012,1.012,0,0,0-.027-.224.564.564,0,0,0-.019-.058.95.95,0,0,0-.055-.149c-.01-.023-.023-.044-.035-.066A1.009,1.009,0,0,0,73.4,29.7a.716.716,0,0,0-.049-.058.969.969,0,0,0-.116-.108c-.012-.01-.021-.023-.034-.032l-9.865-7.253V14.194a1.017,1.017,0,0,0-1.017-1.017H50.987l-11.2-8.229a1.016,1.016,0,0,0-1.2,0l-11.2,8.229H16.047a1.017,1.017,0,0,0-1.017,1.017v8.052L5.164,29.5c-.013.009-.023.023-.035.033a1.059,1.059,0,0,0-.116.108c-.017.019-.033.038-.048.058a1.026,1.026,0,0,0-.081.123c-.012.021-.025.042-.035.065a1.027,1.027,0,0,0-.055.15c-.006.02-.013.039-.018.058a1.012,1.012,0,0,0-.027.224V72.6c0,.021.005.042.006.063a.97.97,0,0,0,.011.109c.005.032.014.063.022.094a1,1,0,0,0,.03.1.957.957,0,0,0,.041.09c.015.03.03.058.046.086a.919.919,0,0,0,.058.082.9.9,0,0,0,.058.073,1.04,1.04,0,0,0,.083.077c.016.013.028.028.044.041s.011,0,.016.008a1.009,1.009,0,0,0,.256.135c.019.007.038.012.058.018a1.036,1.036,0,0,0,.283.045H72.6a1,1,0,0,0,.284-.046l.058-.017a1.02,1.02,0,0,0,.257-.136s.01,0,.015-.008.028-.028.043-.041a.976.976,0,0,0,.084-.078.734.734,0,0,0,.058-.072.955.955,0,0,0,.058-.084A.911.911,0,0,0,73.508,73.054ZM6.783,32.327,24.91,45.649,6.783,69.575ZM26.55,46.856,38.58,55.7a1.017,1.017,0,0,0,1.2,0l12.03-8.843L70.552,71.588H7.813Zm26.908-1.2L71.584,32.327V69.58ZM70.884,30.316l-7.547,5.547V24.772ZM39.184,7.029l8.369,6.148H30.815Zm-22.12,8.182H61.3V37.354l-9.88,7.261c-.005,0-.012.006-.017.01l-.01.01L39.184,53.614,26.971,44.638s-.007-.007-.011-.01-.012-.006-.018-.011l-9.88-7.26Zm-2.034,9.56V35.863L7.484,30.316Z" transform="translate(504.281 1834.651)" fill="#fff9ff"/>
      <path id="Path_1231" data-name="Path 1231" d="M70.752,32.092H83.111a1.017,1.017,0,0,0,0-2.034H70.752a1.017,1.017,0,0,0,0,2.034Z" transform="translate(466.567 1824.051)" fill="#fff9ff"/>
      <path id="Path_1232" data-name="Path 1232" d="M34.517,50.092H67.935a1.017,1.017,0,0,0,0-2.034H34.517a1.017,1.017,0,1,0,0,2.034Z" transform="translate(492.802 1816.512)" fill="#fff9ff"/>
      <path id="Path_1233" data-name="Path 1233" d="M67.935,59.092a1.017,1.017,0,0,0,0-2.034H34.517a1.017,1.017,0,1,0,0,2.034Z" transform="translate(492.802 1812.743)" fill="#fff9ff"/>
    </g>
  </g>
</svg>
